<svg width="32" height="32" viewBox="0 0 100 100" fill="none" xmlns="http://www.w3.org/2000/svg">
  <!-- Carelinx Logo Icon for Favicon - Simplified version focusing on the distinctive green circles -->
  <circle cx="30" cy="80" r="12" fill="#00FFA2"/>
  <path d="M25 15C30 5 40 3 45 10C50 17 50 27 45 33C42 37 38 38 34 37C32 36 30 37 29 38C28 39 28 41 29 43C30 47 29 51 26 55C22 60 18 62 14 60C10 58 8 53 10 48C12 43 15 40 18 39C20 38 22 38 23 39C24 40 24 42 23 43C22 45 22 47 23 49C24 52 25 55 25 15Z" fill="#00FFA2"/>
</svg>
