<svg width="315" height="318" viewBox="0 0 315 318" fill="none" xmlns="http://www.w3.org/2000/svg">
<g id="Enable Push Notifications">
<path id="Stroke 5" fill-rule="evenodd" clip-rule="evenodd" d="M313.066 159.001C313.066 244.916 243.416 314.566 157.5 314.566C71.5844 314.566 1.93588 244.916 1.93588 159.001C1.93588 73.0851 71.5844 3.43506 157.5 3.43506C243.416 3.43506 313.066 73.0851 313.066 159.001Z" stroke="#242424" stroke-width="0.499617" stroke-dasharray="2.51 2.51"/>
<path id="Stroke 7" fill-rule="evenodd" clip-rule="evenodd" d="M273.024 159C273.024 222.802 221.301 274.524 157.5 274.524C93.6967 274.524 41.9774 222.802 41.9774 159C41.9774 95.1989 93.6967 43.4766 157.5 43.4766C221.301 43.4766 273.024 95.1989 273.024 159Z" stroke="#242424" stroke-width="0.499617" stroke-dasharray="2.52 2.52"/>
<g id="Frame 2085662580">
<rect x="84.8407" y="85.9497" width="145.023" height="145.023" rx="24.1706" fill="white"/>
<path id="Vector" d="M157.352 165.734L139.17 183.917C138.139 184.947 136.927 185.462 135.533 185.462C134.139 185.462 132.927 184.947 131.896 183.917C130.866 182.886 130.351 181.674 130.351 180.28C130.351 178.886 130.866 177.674 131.896 176.644L150.079 158.461L131.896 140.278C130.866 139.248 130.351 138.036 130.351 136.642C130.351 135.248 130.866 134.035 131.896 133.005C132.927 131.975 134.139 131.46 135.533 131.46C136.927 131.46 138.139 131.975 139.17 133.005L157.352 151.188L175.535 133.005C176.565 131.975 177.778 131.46 179.172 131.46C180.566 131.46 181.778 131.975 182.808 133.005C183.839 134.035 184.354 135.248 184.354 136.642C184.354 138.036 183.839 139.248 182.808 140.278L164.625 158.461L182.808 176.644C183.839 177.674 184.354 178.886 184.354 180.28C184.354 181.674 183.839 182.886 182.808 183.917C181.778 184.947 180.566 185.462 179.172 185.462C177.778 185.462 176.565 184.947 175.535 183.917L157.352 165.734Z" fill="black"/>
</g>
</g>
</svg>
