<svg width="68" height="68" viewBox="0 0 68 68" fill="none" xmlns="http://www.w3.org/2000/svg">
<g opacity="0.3">
<rect x="12" y="12" width="44" height="44" rx="22" stroke="#52B03B" stroke-width="4"/>
</g>
<g opacity="0.1">
<rect x="2" y="2" width="64" height="64" rx="32" stroke="#52B03B" stroke-width="4"/>
</g>
<path d="M30.12 29.9998C30.4335 29.1087 31.0522 28.3573 31.8666 27.8787C32.681 27.4 33.6385 27.2251 34.5696 27.3848C35.5006 27.5445 36.3451 28.0285 36.9534 28.7512C37.5618 29.4739 37.8947 30.3885 37.8933 31.3332C37.8933 33.9998 33.8933 35.3332 33.8933 35.3332M34 40.6665H34.0133M47.3333 33.9998C47.3333 41.3636 41.3638 47.3332 34 47.3332C26.6362 47.3332 20.6667 41.3636 20.6667 33.9998C20.6667 26.636 26.6362 20.6665 34 20.6665C41.3638 20.6665 47.3333 26.636 47.3333 33.9998Z" stroke="black" stroke-width="2.66667" stroke-linecap="round" stroke-linejoin="round"/>
</svg>
