<svg width="38" height="39" viewBox="0 0 38 39" fill="none" xmlns="http://www.w3.org/2000/svg">
<rect y="0.5" width="38" height="38" rx="12" fill="#0C2243"/>
<path d="M13.48 19.56C13.48 18.7493 13.6187 18.0027 13.896 17.32C14.184 16.6373 14.584 16.0453 15.096 15.544C15.608 15.0427 16.2053 14.6533 16.888 14.376C17.5813 14.0987 18.3333 13.96 19.144 13.96C19.944 13.96 20.6853 14.0987 21.368 14.376C22.0507 14.6533 22.6427 15.0427 23.144 15.544C23.656 16.0453 24.0507 16.6373 24.328 17.32C24.616 18.0027 24.76 18.7493 24.76 19.56C24.76 20.36 24.616 21.1013 24.328 21.784C24.0507 22.4667 23.656 23.064 23.144 23.576C22.6427 24.0773 22.0507 24.4667 21.368 24.744C20.6853 25.0213 19.944 25.16 19.144 25.16C18.3333 25.16 17.5813 25.0213 16.888 24.744C16.2053 24.4667 15.608 24.0773 15.096 23.576C14.584 23.064 14.184 22.4667 13.896 21.784C13.6187 21.1013 13.48 20.36 13.48 19.56ZM15.112 19.56C15.112 20.3387 15.288 21.0373 15.64 21.656C15.992 22.264 16.472 22.744 17.08 23.096C17.688 23.448 18.376 23.624 19.144 23.624C19.912 23.624 20.5947 23.448 21.192 23.096C21.7893 22.744 22.2587 22.264 22.6 21.656C22.952 21.0373 23.128 20.3387 23.128 19.56C23.128 18.7707 22.952 18.072 22.6 17.464C22.2587 16.856 21.7893 16.376 21.192 16.024C20.5947 15.672 19.912 15.496 19.144 15.496C18.376 15.496 17.688 15.672 17.08 16.024C16.472 16.376 15.992 16.856 15.64 17.464C15.288 18.072 15.112 18.7707 15.112 19.56Z" fill="#00FFA2"/>
</svg>
