<svg width="38" height="39" viewBox="0 0 38 39" fill="none" xmlns="http://www.w3.org/2000/svg">
<rect y="0.5" width="38" height="38" rx="12" fill="#0C2243"/>
<path d="M15.672 19.976H17.928C18.632 19.976 19.1973 19.784 19.624 19.4C20.0507 19.016 20.264 18.4827 20.264 17.8C20.264 17.0747 20.0507 16.5307 19.624 16.168C19.208 15.7947 18.648 15.608 17.944 15.608H15.672L15.96 15.24V25H14.36V14.104H18.216C18.9627 14.104 19.6133 14.2693 20.168 14.6C20.7227 14.9307 21.1547 15.3733 21.464 15.928C21.7733 16.4827 21.928 17.1067 21.928 17.8C21.928 18.4827 21.7733 19.1067 21.464 19.672C21.1547 20.2267 20.7173 20.6693 20.152 21C19.5973 21.32 18.9467 21.48 18.2 21.48H15.672V19.976Z" fill="#00FFA2"/>
</svg>
