<svg width="38" height="39" viewBox="0 0 38 39" fill="none" xmlns="http://www.w3.org/2000/svg">
<rect y="0.5" width="38" height="38" rx="12" fill="#0C2243"/>
<path d="M18.504 25.16C17.6827 25.16 16.952 25 16.312 24.68C15.6827 24.36 15.1867 23.8853 14.824 23.256C14.4613 22.616 14.28 21.832 14.28 20.904V14.104H15.88V20.664C15.88 21.6027 16.104 22.3333 16.552 22.856C17.0107 23.368 17.6613 23.624 18.504 23.624C19.3573 23.624 20.008 23.368 20.456 22.856C20.904 22.3333 21.128 21.6027 21.128 20.664V14.104H22.728V20.904C22.728 21.832 22.5467 22.616 22.184 23.256C21.8213 23.8853 21.32 24.36 20.68 24.68C20.0507 25 19.3253 25.16 18.504 25.16Z" fill="#00FFA2"/>
</svg>
